<svg width="50" height="50" viewBox="0 0 50 50" fill="none" xmlns="http://www.w3.org/2000/svg">
<g clip-path="url(#clip0)">
<path d="M46.0104 9.86041L50 6.04375V5.20833H36.1792L26.3292 29.725L15.1229 5.20833H0.631242V6.04375L5.29166 11.6542C5.74583 12.0687 5.98333 12.675 5.92291 13.2854V35.3333C6.06666 36.1271 5.80833 36.9437 5.24999 37.5208L-7.62939e-06 43.8833V44.7083H14.8854V43.8729L9.63541 37.5208C9.06666 36.9417 8.79791 36.1396 8.91249 35.3333V16.2625L21.9792 44.7187H23.4979L34.7333 16.2625V38.9312C34.7333 39.5292 34.7333 39.6521 34.3417 40.0437L30.3 43.9542V44.7917H49.9083V43.9562L46.0125 40.1417C45.6708 39.8833 45.4937 39.45 45.5667 39.0292V10.9729C45.4937 10.55 45.6687 10.1167 46.0104 9.86041Z" fill="#CCCCCC"/>
</g>
<defs>
<clipPath id="clip0">
<rect width="50" height="50" fill="white"/>
</clipPath>
</defs>
</svg>
