<svg width="50" height="50" viewBox="0 0 50 50" fill="none" xmlns="http://www.w3.org/2000/svg">
<g clip-path="url(#clip0)">
<path d="M7.45834 44.1583H37.1646L35.7458 39.5646C35.9563 39.7479 47.9167 50 47.9167 50V5.15625C47.775 2.36875 45.375 -9.53674e-07 42.4 -9.53674e-07L7.46876 0.00624905C4.49584 0.00624905 2.08334 2.37917 2.08334 5.16667V39C2.08334 41.9396 4.49168 44.1583 7.45834 44.1583ZM29.4333 11.8396L29.3646 11.8646L29.3896 11.8396H29.4333ZM13.5354 14.4833C17.3542 11.7042 20.8938 11.8375 20.8938 11.8375L21.1792 12.1187C16.5063 13.2333 14.3875 15.3208 14.3875 15.3208C14.6042 15.275 24.0396 9.83125 35.4729 15.4583C35.4729 15.4583 33.35 13.5062 28.9646 12.2562L29.3521 11.875C29.9583 11.8771 33.1667 11.9896 36.6 14.5C36.6 14.5 40.4417 21.0625 40.4417 29.125C40.3146 28.9708 38.0583 32.5958 32.2521 32.7208C32.2521 32.7208 31.2688 31.6083 30.5688 30.6375C33.9646 29.6625 35.2354 27.7125 35.2354 27.7125C28.625 31.875 22.8313 31.225 15.9 28.4125C15.8354 28.4125 15.8063 28.3833 15.7729 28.35V28.3375C15.7396 28.3062 15.7104 28.275 15.6458 28.275H15.5208C15.0958 27.9958 14.8125 27.8583 14.8125 27.8583C14.8125 27.8583 16.0813 29.8083 19.3417 30.7833C18.4854 31.7604 17.6375 32.8708 17.6375 32.8708C11.8333 32.7333 9.71668 29.1083 9.71668 29.1083C9.71668 21.0333 13.5354 14.4833 13.5354 14.4833Z" fill="#CCCCCC"/>
<path d="M29.8083 26.6062C31.2896 26.6062 32.4958 25.3562 32.4958 23.8146C32.4958 22.2833 31.2958 21.0333 29.8083 21.0333V21.0396C28.3333 21.0396 27.125 22.2854 27.1208 23.8271C27.1208 25.3562 28.3271 26.6062 29.8083 26.6062Z" fill="#CCCCCC"/>
<path d="M20.1875 26.6062C21.6688 26.6062 22.875 25.3562 22.875 23.8146C22.875 22.2833 21.6771 21.0333 20.1958 21.0333L20.1875 21.0396C18.7063 21.0396 17.5 22.2854 17.5 23.8271C17.5 25.3562 18.7063 26.6062 20.1875 26.6062Z" fill="#CCCCCC"/>
</g>
<defs>
<clipPath id="clip0">
<rect width="50" height="50" fill="white"/>
</clipPath>
</defs>
</svg>
