<svg width="50" height="50" viewBox="0 0 50 50" fill="none" xmlns="http://www.w3.org/2000/svg">
<path d="M24.9999 0C11.2306 0 0.042984 11.1876 0.042984 24.957C0.042984 35.1979 6.15315 43.9759 15.0172 47.8485C14.9311 46.1274 15.0172 43.9759 15.4475 42.0826C15.9639 40.0172 18.6316 28.4853 18.6316 28.4853C18.6316 28.4853 17.8571 26.8503 17.8571 24.5266C17.8571 20.8261 20.0086 18.0723 22.6763 18.0723C24.9139 18.0723 26.0326 19.7934 26.0326 21.8588C26.0326 24.0963 24.5696 27.5386 23.7951 30.7228C23.1927 33.3907 25.0859 35.542 27.7538 35.542C32.487 35.542 35.6712 29.4319 35.6712 22.289C35.6712 16.7812 31.9706 12.7365 25.2581 12.7365C17.6849 12.7365 12.9518 18.4164 12.9518 24.6986C12.9518 26.8501 13.5542 28.3992 14.5868 29.6039C15.0172 30.1203 15.1032 30.3785 14.9311 30.9808C14.845 31.4112 14.5008 32.5299 14.4147 32.9601C14.2425 33.5625 13.7262 33.8208 13.1238 33.5625C9.59546 32.0995 8.04637 28.313 8.04637 24.0101C8.04637 16.9533 13.9844 8.4335 25.8605 8.4335C35.4129 8.4335 41.6953 15.3182 41.6953 22.7192C41.6953 32.5298 36.2736 39.8449 28.2702 39.8449C25.6023 39.8449 23.0206 38.3819 22.16 36.7468C22.16 36.7468 20.697 42.5127 20.4389 43.6315C19.9225 45.5248 18.8898 47.5041 17.9432 48.9671C20.1807 49.6556 22.5903 49.9998 24.9999 49.9998C38.7693 49.9998 49.9569 38.8122 49.9569 25.0428C49.9569 11.2735 38.7694 0 24.9999 0Z" fill="#CCCCCC"/>
</svg>
