<svg width="25" height="25" viewBox="0 0 25 25" fill="none" xmlns="http://www.w3.org/2000/svg">
<g clip-path="url(#clip0)">
<path d="M11.8938 0.0144578C5.29135 0.32883 0.0810718 5.82741 0.101101 12.4374C0.1072 14.4506 0.593227 16.3508 1.45061 18.0298L0.134225 24.4197C0.0630155 24.7653 0.374757 25.068 0.718127 24.9867L6.97944 23.5032C8.58807 24.3045 10.3949 24.7673 12.3071 24.7965C19.0555 24.8996 24.6825 19.5412 24.8928 12.7954C25.1183 5.56428 19.1502 -0.331124 11.8938 0.0144578ZM19.3649 19.2639C17.5312 21.0976 15.0932 22.1074 12.5 22.1074C10.9816 22.1074 9.5279 21.7668 8.17911 21.0949L7.30715 20.6605L3.46831 21.5701L4.27637 17.6475L3.84678 16.8062C3.14659 15.435 2.79156 13.9521 2.79156 12.399C2.79156 9.80573 3.8014 7.36776 5.63508 5.53403C7.45237 3.71673 9.93016 2.69045 12.5002 2.69045C15.0934 2.69051 17.5313 3.70035 19.365 5.53397C21.1987 7.36764 22.2085 9.80561 22.2086 12.3988C22.2085 14.9689 21.1822 17.4467 19.3649 19.2639Z" fill="white"/>
<path d="M18.5175 15.0879L16.1158 14.3983C15.8 14.3076 15.46 14.3972 15.2299 14.6316L14.6426 15.23C14.395 15.4823 14.0192 15.5634 13.6914 15.4308C12.5553 14.971 10.1654 12.8461 9.5551 11.7832C9.37902 11.4766 9.40813 11.0933 9.62433 10.8135L10.1371 10.1502C10.338 9.89026 10.3804 9.54121 10.2475 9.24077L9.23708 6.95544C8.99505 6.40807 8.29557 6.24873 7.8386 6.63521C7.16831 7.20213 6.37299 8.06363 6.27631 9.01805C6.10585 10.7008 6.82751 12.822 9.55647 15.369C12.7092 18.3115 15.2338 18.7003 16.8776 18.3021C17.81 18.0763 18.5551 17.1709 19.0253 16.4297C19.3459 15.9243 19.0927 15.2531 18.5175 15.0879Z" fill="white"/>
</g>
<defs>
<clipPath id="clip0">
<rect width="25" height="25" fill="white"/>
</clipPath>
</defs>
</svg>
